<?xml version="1.0" encoding="UTF-8" standalone="no"?><!DOCTYPE svg PUBLIC "-//W3C//DTD SVG 1.1//EN" "http://www.w3.org/Graphics/SVG/1.1/DTD/svg11.dtd"><svg width="100%" height="100%" viewBox="0 0 381 381" version="1.1" xmlns="http://www.w3.org/2000/svg" xmlns:xlink="http://www.w3.org/1999/xlink" xml:space="preserve" xmlns:serif="http://www.serif.com/" style="fill-rule:evenodd;clip-rule:evenodd;stroke-linejoin:round;stroke-miterlimit:2;"><rect id="Artboard4" x="0" y="0" width="380.358" height="380.358" style="fill:none;"/><g><path d="M159.152,33.051l52.145,-13.999c8.556,-2.297 17.694,-0.125 24.302,5.776c6.607,5.901 9.794,14.736 8.475,23.497c-0.733,4.868 -1.207,8.015 -1.207,8.015c-0.745,4.953 2.671,9.581 7.624,10.326c4.954,0.746 9.581,-2.67 10.327,-7.623l1.207,-8.015c2.231,-14.817 -3.159,-29.759 -14.334,-39.74c-11.176,-9.98 -26.63,-13.653 -41.101,-9.768c-26.072,6.999 -52.145,13.999 -52.145,13.999c-4.838,1.299 -7.712,6.281 -6.413,11.119c1.299,4.839 6.282,7.712 11.12,6.413Z"/><path d="M5.854,41.118c-0.007,-0.12 -0.081,-0.124 -0.155,-0.096c-0.074,-0.028 -0.147,-0.023 -0.155,0.096l-0,0.001l-0,0.018l-0,0.002c-0,0.122 0,0.8 0.001,1.941c0.008,11.409 0.047,69.141 -0.001,80.261l-0,-0c-0.007,1.62 0.709,3.221 2.037,4.784c1.94,2.285 5.197,4.508 9.334,6.647c16.011,8.279 45.251,15.368 62.07,20.522c0.002,0 0.003,0.001 0.004,0.001c17.189,4.647 46.199,12.359 62.077,20.804c4.064,2.162 7.265,4.369 9.178,6.588c1.241,1.439 1.936,2.872 1.943,4.307c0.001,0.283 0.003,0.427 0.004,0.443c0.004,0.05 0.018,0.077 0.022,0.086c0.036,0.079 0.086,0.095 0.123,0.098c0.042,0.004 0.098,-0.007 0.14,-0.092c0.002,-0.004 0.024,-0.04 0.026,-0.118c0.002,-0.058 0.003,-0.306 0.005,-0.726c0.025,-7.492 0.042,-70.136 -0.009,-81.916c-0.007,-1.53 -0.725,-3.077 -2.048,-4.612c-1.932,-2.241 -5.163,-4.476 -9.268,-6.66c-15.89,-8.453 -44.924,-16.174 -62.128,-20.825c-16.808,-5.15 -45.998,-12.231 -62,-20.504c-4.095,-2.117 -7.324,-4.309 -9.25,-6.571c-1.251,-1.468 -1.949,-2.956 -1.949,-4.478l-0.001,-0.001Zm0.002,1.856l0,0.105c0.009,11.41 0.047,69.144 -0.001,80.264l-0,-0c-0.007,1.521 0.686,3.009 1.933,4.477c1.921,2.262 5.147,4.454 9.241,6.571c15.999,8.273 45.217,15.353 62.025,20.503c17.204,4.652 46.238,12.373 62.128,20.826c4.105,2.183 7.336,4.419 9.268,6.66c0.829,0.962 1.421,1.929 1.749,2.894c0.023,-11.858 0.037,-69.277 -0.012,-80.502c-0.007,-1.435 -0.702,-2.869 -1.943,-4.308c-1.913,-2.218 -5.114,-4.425 -9.178,-6.587c-15.878,-8.446 -44.888,-16.157 -62.077,-20.805c-0.001,0 -0.002,-0 -0.004,-0.001c-16.819,-5.153 -46.031,-12.242 -62.045,-20.522c-4.137,-2.139 -7.397,-4.361 -9.343,-6.646c-0.821,-0.963 -1.41,-1.941 -1.741,-2.929Z" style="fill:none;"/><path d="M152.342,186.947c-0.054,-12.356 0,-82.257 0,-82.223c0,13.089 -49.302,24.393 -73.321,31.753c-24.567,6.642 -73.268,19.543 -73.322,31.899c-0.057,13.088 -0.029,88.97 0,82.222c0.054,-12.355 48.755,-25.256 73.322,-31.898c24.019,-7.36 73.379,-18.665 73.321,-31.753Z"/><path d="M152.342,186.947c-0.054,-12.356 0,-82.257 0,-82.223c0,13.089 -49.302,24.393 -73.321,31.753c-24.567,6.642 -73.268,19.543 -73.322,31.899c-0.057,13.088 -0.029,88.97 0,82.222c0.054,-12.355 48.755,-25.256 73.322,-31.898c24.019,-7.36 73.379,-18.665 73.321,-31.753Z"/><path d="M39.636,143.491c-15.244,-4.948 -28.89,-10.582 -32.81,-16.666c1.591,-4.386 4.289,-7.459 4.917,-8.058c1.724,-1.644 4.222,-3.215 7.229,-4.77c15.798,-8.168 44.616,-15.111 61.241,-20.201c9.231,-2.515 15.78,-8.077 21.339,-14.666c18.467,5.405 38.709,12.293 46.965,19.379c1.637,5.672 -1.442,8.126 -2.218,8.866c-1.725,1.644 -4.222,3.215 -7.229,4.77c-15.798,8.167 -44.614,15.111 -61.24,20.2c-10.305,2.786 -24.764,6.669 -38.194,11.146Z"/><path d="M152.343,104.627c-0.074,-0.028 -0.148,-0.024 -0.156,0.096l-0,0.001c-0,1.522 -0.699,3.01 -1.949,4.479c-1.927,2.261 -5.155,4.453 -9.25,6.57c-16.002,8.274 -45.193,15.354 -62,20.504c-17.205,4.652 -46.238,12.373 -62.129,20.825c-4.105,2.184 -7.335,4.419 -9.267,6.66c-1.323,1.535 -2.042,3.082 -2.048,4.612c-0.052,11.78 -0.035,74.425 -0.009,81.916c0.001,0.42 0.003,0.668 0.004,0.726c0.007,0.278 0.283,0.127 0.29,0.112c0.004,-0.009 0.017,-0.035 0.021,-0.086c0.002,-0.016 0.004,-0.16 0.005,-0.443c0.006,-1.435 0.702,-2.868 1.942,-4.307c1.913,-2.219 5.115,-4.426 9.179,-6.587c15.877,-8.446 44.887,-16.157 62.076,-20.805c0.001,-0 0.003,-0.001 0.004,-0.001c16.819,-5.154 46.06,-12.243 62.071,-20.522c4.137,-2.139 7.393,-4.361 9.334,-6.646c1.328,-1.564 2.044,-3.165 2.037,-4.785l-0,-0c-0.049,-11.12 -0.01,-68.851 -0.002,-80.261c0.001,-1.141 0.002,-1.819 0.002,-1.941l-0,-0.002l-0,-0.018l-0.001,-0.001c-0.007,-0.119 -0.081,-0.124 -0.154,-0.096Zm-0.158,1.953c-0.331,0.987 -0.92,1.965 -1.74,2.928c-1.947,2.285 -5.206,4.507 -9.344,6.647c-16.014,8.279 -45.226,15.368 -62.045,20.521c-0.001,0.001 -0.003,0.001 -0.004,0.002c-17.189,4.647 -46.199,12.358 -62.076,20.804c-4.064,2.162 -7.266,4.369 -9.179,6.587c-1.24,1.439 -1.936,2.873 -1.942,4.308c-0.049,11.225 -0.036,68.644 -0.012,80.502c0.327,-0.965 0.919,-1.932 1.749,-2.894c1.932,-2.241 5.162,-4.477 9.267,-6.66c15.891,-8.453 44.924,-16.174 62.129,-20.825c16.807,-5.15 46.026,-12.231 62.025,-20.504c4.094,-2.117 7.32,-4.309 9.241,-6.571c1.246,-1.467 1.939,-2.956 1.933,-4.477l-0,0c-0.049,-11.12 -0.01,-68.853 -0.002,-80.264l0,-0.104Z" style="fill:none;"/><path d="M31.48,307.722c20.001,-8.434 23.962,-37.144 47.541,-43.519c24.019,-7.36 73.321,-18.664 73.321,-31.753c0,-0.035 -0.054,69.867 0,82.223c0.058,13.088 -49.302,24.393 -73.321,31.752c-23.763,6.425 -27.67,-18.621 -48.018,-14.007l-1.633,0.508c-4.875,1.517 -9.768,-2.461 -10.92,-8.876c-1.152,-6.416 1.87,-12.856 6.744,-14.372l6.286,-1.956Z"/><path d="M126.561,46.146c-20,8.433 -23.961,37.144 -47.54,43.519c-24.019,7.36 -73.322,18.664 -73.322,31.753c0,0.034 0.054,-69.868 0,-82.223c-0.057,-13.088 49.303,-24.393 73.322,-31.753c23.763,-6.425 27.67,18.621 48.017,14.007l1.634,-0.508c4.874,-1.516 9.767,2.461 10.919,8.877c1.153,6.415 -1.869,12.855 -6.744,14.372l-6.286,1.956Z"/><path d="M198.257,221.412l26.095,-137.163c2.274,-11.952 12.264,-11.615 24.215,-9.342c11.952,2.274 21.368,5.63 19.094,17.581l-26.095,137.163c-0,0 10.58,2.013 19.564,3.722c2.469,0.47 4.483,2.252 5.249,4.645c0.767,2.393 0.163,5.014 -1.573,6.831c-13.805,14.443 -40.451,42.322 -53.325,55.791c-1.607,1.681 -3.955,2.433 -6.239,1.999c-2.284,-0.435 -4.193,-1.997 -5.07,-4.15c-7.028,-17.256 -21.576,-52.972 -29.112,-71.476c-0.948,-2.327 -0.547,-4.986 1.044,-6.93c1.592,-1.945 4.12,-2.863 6.588,-2.393c8.985,1.709 19.565,3.722 19.565,3.722Z"/><path d="M55.372,276.09c-19.895,-5.759 -41.717,-12.797 -47.935,-20.605c1.565,-5.777 3.642,-6.731 4.287,-7.344c1.721,-1.636 4.211,-3.233 7.213,-4.83c15.65,-8.325 44.262,-15.88 61.206,-20.461c0.046,-0.012 0.092,-0.025 0.137,-0.039c9.859,-3.021 23.93,-6.715 37.17,-10.917c15.089,5.05 28.731,10.856 33.285,16.703c-1.47,3.748 -3.76,5.859 -4.436,6.504c-1.725,1.644 -4.222,3.214 -7.229,4.769c-15.798,8.168 -44.616,15.112 -61.242,20.201c-9.856,2.686 -16.655,8.845 -22.456,16.019Z"/><path d="M347.142,187.852l-26.215,137.14c-2.284,11.949 -12.274,11.604 -24.224,9.32c-11.949,-2.284 -21.362,-5.648 -19.078,-17.597l26.215,-137.141c-0,0 -10.578,-2.022 -19.561,-3.739c-2.468,-0.472 -4.481,-2.256 -5.245,-4.649c-0.765,-2.394 -0.159,-5.014 1.579,-6.829c13.817,-14.431 40.488,-42.287 53.374,-55.745c1.608,-1.68 3.957,-2.43 6.241,-1.993c2.283,0.436 4.19,2 5.065,4.154c7.014,17.262 21.53,52.991 29.051,71.501c0.946,2.328 0.542,4.987 -1.051,6.93c-1.594,1.943 -4.122,2.859 -6.59,2.387c-8.983,-1.717 -19.561,-3.739 -19.561,-3.739Z"/><path d="M193.79,317.877c-2.514,13.215 0.325,26.886 7.891,38.008c7.382,10.852 23.912,21.784 40.997,23.807c35.751,4.233 53.822,-12.522 57.588,-26.944c1.279,-4.898 -1.66,-9.914 -6.558,-11.193c-4.898,-1.279 -9.913,1.66 -11.192,6.558c-0.987,3.779 -4.251,7.326 -9.334,9.904c-6.655,3.376 -16.083,4.909 -28.347,3.457c-11.601,-1.374 -22.973,-8.539 -27.986,-15.908c-4.83,-7.099 -6.641,-15.825 -5.037,-24.26c0.946,-4.973 -2.323,-9.779 -7.296,-10.725c-4.974,-0.946 -9.78,2.323 -10.726,7.296Z"/><path d="M352.008,92.313l1.529,-7.775c5.91,-30.041 -11.24,-51.79 -44.287,-67.077c-4.546,-2.103 -9.945,-0.119 -12.048,4.428c-2.103,4.546 -0.119,9.945 4.427,12.048c23.906,11.058 38.371,25.366 34.097,47.097c-0,0 -1.53,7.775 -1.53,7.775c-0.967,4.916 2.239,9.691 7.154,10.658c4.915,0.967 9.691,-2.239 10.658,-7.154Z"/></g></svg>